<!DOCTYPE svg PUBLIC "-//W3C//DTD SVG 1.1//EN" "http://www.w3.org/Graphics/SVG/1.1/DTD/svg11.dtd">
<!-- Uploaded to: SVG Repo, www.svgrepo.com, Transformed by: SVG Repo Mixer Tools -->
<svg width="800px" height="800px" viewBox="-153.6 -153.6 819.20 819.20" version="1.1" xmlns="http://www.w3.org/2000/svg" xmlns:xlink="http://www.w3.org/1999/xlink" fill="#000000">
<g id="SVGRepo_bgCarrier" stroke-width="0" transform="translate(15.360000000000014,15.360000000000014), scale(0.94)">
<path transform="translate(-153.6, -153.6), scale(51.2)" fill="#ffffff" d="M9.166.33a2.25 2.25 0 00-2.332 0l-5.25 3.182A2.25 2.25 0 00.5 5.436v5.128a2.25 2.25 0 001.084 1.924l5.25 3.182a2.25 2.25 0 002.332 0l5.25-3.182a2.25 2.25 0 001.084-1.924V5.436a2.25 2.25 0 00-1.084-1.924L9.166.33z" strokewidth="0"/>
</g>
<g id="SVGRepo_tracerCarrier" stroke-linecap="round" stroke-linejoin="round"/>
<g id="SVGRepo_iconCarrier"> <title>contact-details-filled</title> <g id="Page-1" stroke="none" stroke-width="1" fill="none" fill-rule="evenodd"> <g id="icon" fill="#000000" transform="translate(42.666667, 85.333333)"> <path d="M426.666667,1.42108547e-14 L426.666667,341.333333 L3.55271368e-14,341.333333 L3.55271368e-14,1.42108547e-14 L426.666667,1.42108547e-14 Z M362.666667,213.333333 L234.666667,213.333333 L234.666667,245.333333 L362.666667,245.333333 L362.666667,213.333333 Z M125.333333,155.733333 L109.333333,155.733333 C78.4053873,155.733333 53.3333333,181.333333 53.3333333,213.333333 L53.3333333,213.333333 L181.333333,213.333333 C181.333333,181.333333 156.16,155.733333 125.333333,155.733333 L125.333333,155.733333 Z M362.666667,149.333333 L234.666667,149.333333 L234.666667,181.333333 L362.666667,181.333333 L362.666667,149.333333 Z M117.333333,78.62624 C101.86936,78.62624 89.3333333,91.162267 89.3333333,106.62624 C89.3333333,122.090213 101.86936,134.62624 117.333333,134.62624 C132.797306,134.62624 145.333333,122.090213 145.333333,106.62624 C145.333333,91.162267 132.797306,78.62624 117.333333,78.62624 Z M362.666667,85.3333333 L234.666667,85.3333333 L234.666667,117.333333 L362.666667,117.333333 L362.666667,85.3333333 Z" id="Combined-Shape"> </path> </g> </g> </g>
</svg>