<!DOCTYPE svg PUBLIC "-//W3C//DTD SVG 1.1//EN" "http://www.w3.org/Graphics/SVG/1.1/DTD/svg11.dtd">
<!-- Uploaded to: SVG Repo, www.svgrepo.com, Transformed by: SVG Repo Mixer Tools -->
<svg fill="#000000" width="800px" height="800px" viewBox="-34.56 -34.56 165.12 165.12" xmlns="http://www.w3.org/2000/svg" transform="rotate(0)">
<g id="SVGRepo_bgCarrier" stroke-width="0" transform="translate(2.8800000000000026,2.8800000000000026), scale(0.94)">
<path transform="translate(-34.56, -34.56), scale(10.32)" fill="#ffffff" d="M9.166.33a2.25 2.25 0 00-2.332 0l-5.25 3.182A2.25 2.25 0 00.5 5.436v5.128a2.25 2.25 0 001.084 1.924l5.25 3.182a2.25 2.25 0 002.332 0l5.25-3.182a2.25 2.25 0 001.084-1.924V5.436a2.25 2.25 0 00-1.084-1.924L9.166.33z" strokewidth="0"/>
</g>
<g id="SVGRepo_tracerCarrier" stroke-linecap="round" stroke-linejoin="round"/>
<g id="SVGRepo_iconCarrier"> <title/> <g> <path d="M66,84H54V42a5.9966,5.9966,0,0,0-6-6H36a6,6,0,0,0,0,12h6V84H30a6,6,0,0,0,0,12H66a6,6,0,0,0,0-12Z"/> <path d="M48,24A12,12,0,1,0,36,12,12.0119,12.0119,0,0,0,48,24Z"/> </g> </g>
</svg>